Coordinates
version=1
nRows=5
nColumns=46
inDegrees=yes

Units are S.I. units (second, meters, Newtons, ...)
Angles are in degrees.

endheader
time	pelvis_tilt	pelvis_list	pelvis_rotation	pelvis_tx	pelvis_ty	pelvis_tz	bb_angle	bb_tx	bb_ty	bb_tz	hip_flexion_r	hip_adduction_r	hip_rotation_r	knee_angle_r	knee_angle_r_beta	ankle_angle_r	subtalar_angle_r	mtp_angle_r	crank_angle_r	hip_flexion_l	hip_adduction_l	hip_rotation_l	knee_angle_l	knee_angle_l_beta	ankle_angle_l	subtalar_angle_l	mtp_angle_l	crank_angle_l	lumbar_extension	lumbar_bending	lumbar_rotation	arm_flex_r	arm_add_r	arm_rot_r	elbow_flex_r	pro_sup_r	wrist_flex_r	wrist_dev_r	arm_flex_l	arm_add_l	arm_rot_l	elbow_flex_l	pro_sup_l	wrist_flex_l	wrist_dev_l
      5.00000000	    -15.23829051	      3.80770469	      8.51915417	      0.14208255	      1.14848470	     -0.24021780	      0.00000000	      0.50000000	      0.00000000	      0.25000000	     52.69208764	    -14.51913141	     -7.50208220	     74.74981976	      1.30463047	      1.13191311	     -6.38897177	      0.00000000	      0.00000000	     82.99924858	     -0.30025227	      0.73029204	     88.47710399	      1.54421678	      7.59556093	      6.47008099	      0.00000000	      0.00000000	    -64.53947575	     -3.34956623	     -3.93742735	     89.44836360	    -26.54812139	     35.87676654	     62.73737941	     30.27737119	      0.00000000	      0.00000000	     89.77148271	     -6.96407216	     32.70837990	     64.05169503	     30.94853278	      0.00000000	      0.00000000
      5.00500000	    -15.23820845	      3.62773457	      8.46761207	      0.14236132	      1.14715408	     -0.23958404	      0.00000000	      0.50000000	      0.00000000	      0.25000000	     53.89651370	    -14.23782982	     -6.90602191	     77.21167426	      1.34759794	      0.77439700	     -6.66185131	      0.00000000	      0.00000000	     81.31501207	     -0.42694588	      0.66225303	     86.14292429	      1.50347766	      9.47610666	      6.66078974	      0.00000000	      0.00000000	    -64.46670143	     -3.24787137	     -3.47426579	     89.43145141	    -26.75103186	     35.65965709	     62.77504775	     30.40742304	      0.00000000	      0.00000000	     89.76949176	     -7.00400164	     32.83465612	     64.07387200	     30.74891624	      0.00000000	      0.00000000
      5.01000000	    -15.17807016	      3.36866280	      8.43272504	      0.14268747	      1.14575141	     -0.23935042	      0.00000000	      0.50000000	      0.00000000	      0.25000000	     55.06576166	    -13.95016194	     -6.41869262	     79.65349465	      1.39021574	      0.42697974	     -6.75887387	      0.00000000	      0.00000000	     79.58590227	     -0.47527821	      0.67498000	     83.79181864	      1.46244312	     11.17360596	      6.39953915	      0.00000000	      0.00000000	    -64.38549017	     -3.01023133	     -2.93584072	     89.41973375	    -26.89727088	     35.50165176	     62.82588267	     30.47699209	      0.00000000	      0.00000000	     89.76237877	     -7.11334389	     32.91346962	     64.09500400	     30.67976073	      0.00000000	      0.00000000
      5.01500000	    -15.03885462	      3.21427433	      8.35785289	      0.14309425	      1.14462745	     -0.23913380	      0.00000000	      0.50000000	      0.00000000	      0.25000000	     56.23024501	    -13.70750509	     -5.83529281	     82.09510996	      1.43282997	     -0.09373901	     -6.84573173	      0.00000000	      0.00000000	     77.69753870	     -0.50171358	      0.55782247	     81.32320396	      1.41935767	     12.48585201	      6.03269603	      0.00000000	      0.00000000	    -64.38863247	     -2.84987102	     -2.47494360	     89.40477347	    -27.04214396	     35.32754636	     62.93822998	     30.57342901	      0.00000000	      0.00000000	     89.75711883	     -7.23205172	     33.14431635	     64.05230772	     30.60946367	      0.00000000	      0.00000000
      5.02000000	    -14.87913718	      3.06828985	      8.28297644	      0.14356719	      1.14339102	     -0.23922036	      0.00000000	      0.50000000	      0.00000000	      0.25000000	     57.44760886	    -13.49772097	     -5.23696396	     84.54102668	      1.47551927	     -0.74918893	     -6.96294278	      0.00000000	      0.00000000	     75.81534483	     -0.48536205	      0.41743270	     78.86186195	      1.37639915	     13.54313252	      5.46667914	      0.00000000	      0.00000000	    -64.40322067	     -2.64848020	     -2.05280644	     89.35851697	    -27.11968459	     35.11912160	     63.12505177	     30.70228571	      0.00000000	      0.00000000	     89.74900156	     -7.38762613	     33.36795255	     63.98277680	     30.55578183	      0.00000000	      0.00000000
